<?xml version="1.0" standalone="no"?>
<svg width="872" height="894" version="1.1" xmlns="http://www.w3.org/2000/svg">
  <path d="M 13 230 L 7 238 L 1 253 L 0 265 L 2 276 L 7 287 L 15 297 L 24 304 L 37 310 L 60 313 L 304 312 L 311 313 L 315 317 L 315 485 L 312 492 L 268 562 L 122 808 L 117 824 L 117 847 L 122 862 L 128 871 L 136 879 L 148 887 L 158 891 L 168 893 L 181 893 L 194 890 L 203 886 L 212 880 L 220 872 L 336 699 L 412 581 L 422 570 L 430 566 L 439 566 L 445 568 L 457 580 L 647 866 L 658 878 L 670 886 L 680 890 L 690 892 L 704 892 L 719 888 L 727 884 L 743 870 L 750 859 L 755 841 L 755 829 L 751 811 L 624 599 L 590 538 L 557 487 L 555 477 L 556 313 L 822 312 L 833 310 L 853 300 L 862 291 L 870 275 L 870 249 L 865 238 L 855 226 L 839 216 L 825 212 L 501 212 L 500 211 L 519 196 L 533 179 L 542 164 L 548 148 L 553 124 L 553 106 L 550 88 L 546 75 L 539 60 L 525 40 L 513 28 L 499 18 L 482 9 L 460 2 L 448 0 L 423 0 L 400 5 L 389 9 L 372 18 L 356 30 L 347 39 L 336 54 L 329 67 L 321 90 L 318 110 L 318 123 L 320 137 L 326 157 L 332 170 L 342 185 L 357 201 L 371 211 L 370 212 L 49 212 L 31 217 Z" fill="none" stroke="black" stroke-width="1"/>
</svg>
